<mxfile host="65bd71144e">
    <diagram id="ryt1JyRTmJbPCQ_Oswjp" name="Page-1">
        <mxGraphModel dx="1624" dy="750" grid="1" gridSize="10" guides="1" tooltips="1" connect="1" arrows="1" fold="1" page="1" pageScale="1" pageWidth="1100" pageHeight="850" math="0" shadow="0">
            <root>
                <mxCell id="0"/>
                <mxCell id="1" parent="0"/>
                <mxCell id="2" value="&lt;h3&gt;Prikazati kako bi se sačuvali brojevi 18, 41, 22, 44, 59, 32, 31, 73 u nizu dužine 13, korišćenjem heširanja.&amp;nbsp;&lt;/h3&gt;&lt;h3&gt;Napisati pseudo kod za traženje elemenata u heš tabeli. Objasniti šta je kolizija. Sortirati elemente korišćenjem qucik i heap sorta.&lt;/h3&gt;" style="text;html=1;align=center;verticalAlign=middle;resizable=0;points=[];autosize=1;strokeColor=none;fillColor=none;" vertex="1" parent="1">
                    <mxGeometry x="105" width="890" height="90" as="geometry"/>
                </mxCell>
            </root>
        </mxGraphModel>
    </diagram>
</mxfile>